# xmcd CD database file
#
# Track frame offsets:
#	150
#	37097
#	78706
#	101580
#	139269
#	166680
#	186946
#	216021
#	241550
#	261098
#
# Disc length: 3884 seconds
#
# Revision: 0
# Processed by: cddbd v1.5.1PL0 Copyright (c) Steve Scherf et al.
# Submitted via: CDex 1.40Beta8
#
DISCID=840f2a0a
DTITLE=Verschiedene - Native Spirit
DYEAR=2002
DGENRE=Native American
TTITLE0=Spirit Flight
TTITLE1=Sacred Vision
TTITLE2=Eye Of The Eagle
TTITLE3=Morning Mist
TTITLE4=River Running
TTITLE5=Water Spirit
TTITLE6=Father Sky
TTITLE7=Sacred Circle
TTITLE8=Awaken The Spirits
TTITLE9=Earth Dance
EXTD=YEAR: 2002 ID3G: 64
EXTT0=
EXTT1=
EXTT2=
EXTT3=
EXTT4=
EXTT5=
EXTT6=
EXTT7=
EXTT8=
EXTT9=
PLAYORDER=
